<?xml version="1.0" standalone="no"?>
<!DOCTYPE svg PUBLIC "-//W3C//DTD SVG 20010904//EN"
 "http://www.w3.org/TR/2001/REC-SVG-20010904/DTD/svg10.dtd">
<svg version="1.0" xmlns="http://www.w3.org/2000/svg"
 width="285.000000pt" height="94.000000pt" viewBox="0 0 285.000000 94.000000"
 preserveAspectRatio="xMidYMid meet">
<metadata>
Created by potrace 1.15, written by Peter Selinger 2001-2017
</metadata>
<g transform="translate(0.000000,94.000000) scale(0.100000,-0.100000)"
fill="#000000" stroke="none">
<path d="M732 684 c-25 -13 -36 -14 -45 -5 -6 6 -17 11 -24 11 -10 0 -13 -34
-13 -155 0 -148 1 -155 20 -155 19 0 20 7 20 123 0 82 4 127 12 135 16 16 83
15 96 -1 7 -7 13 -66 14 -133 3 -104 5 -119 21 -122 15 -3 17 9 17 136 0 120
-2 141 -17 155 -28 25 -65 29 -101 11z"/>
<path d="M80 676 c0 -20 23 -26 91 -26 32 0 59 -2 59 -5 0 -3 -34 -55 -75
-116 -41 -60 -75 -119 -75 -130 0 -19 6 -20 108 -17 87 2 107 6 107 18 0 12
-17 16 -77 18 -43 2 -78 6 -78 9 0 3 36 59 80 125 44 66 78 124 75 129 -4 5
-53 9 -111 9 -82 0 -104 -3 -104 -14z"/>
<path d="M384 669 c-14 -16 -20 -40 -23 -100 -7 -157 13 -189 114 -189 58 0
65 2 65 20 0 17 -7 20 -46 20 -66 0 -84 13 -84 60 l0 40 64 0 c93 0 96 2 96
71 0 82 -18 99 -103 99 -52 0 -67 -4 -83 -21z"/>
<path d="M951 664 c-27 -34 -27 -84 -1 -117 17 -21 31 -27 73 -29 l52 -3 3
-42 c4 -48 -1 -51 -93 -55 -37 -2 -50 -7 -50 -18 0 -12 17 -16 77 -18 99 -4
118 11 118 92 0 65 -12 77 -80 84 -57 5 -73 19 -68 59 3 27 6 28 63 33 47 4
61 9 63 23 3 15 -5 17 -67 17 -63 0 -71 -2 -90 -26z"/>
<path d="M1230 670 c-18 -18 -20 -33 -20 -130 0 -105 1 -112 25 -136 22 -22
32 -25 88 -22 47 2 62 7 62 18 0 11 -14 16 -53 18 -42 2 -55 8 -68 27 -8 13
-14 34 -12 47 3 21 9 23 73 26 38 2 75 8 82 14 21 17 16 101 -8 132 -18 23
-27 26 -85 26 -51 0 -68 -4 -84 -20z"/>
</g>
</svg>
